<svg width="12" height="12" viewBox="0 0 12 12" fill="none" xmlns="http://www.w3.org/2000/svg">
<path d="M0.238985 10.5568C-0.0734518 10.8693 -0.0883298 11.4272 0.246424 11.7545C0.573739 12.0818 1.13166 12.0744 1.4441 11.762L5.99675 7.20186L10.5568 11.762C10.8767 12.0818 11.4272 12.0818 11.7545 11.7545C12.0744 11.4198 12.0818 10.8767 11.7545 10.5568L7.20186 5.99675L11.7545 1.4441C12.0818 1.12422 12.0818 0.573739 11.7545 0.246424C11.4198 -0.0734518 10.8767 -0.0808908 10.5568 0.238985L5.99675 4.79908L1.4441 0.238985C1.13166 -0.0734518 0.5663 -0.0883298 0.246424 0.246424C-0.0808908 0.573739 -0.0734518 1.13166 0.238985 1.4441L4.79908 5.99675L0.238985 10.5568Z" fill="black" fill-opacity="0.3"/>
</svg>
