<svg width="40" height="24" viewBox="0 0 40 24" fill="none" xmlns="http://www.w3.org/2000/svg">
<path fill-rule="evenodd" clip-rule="evenodd" d="M25 20C29.4183 20 33 16.4183 33 12C33 7.58172 29.4183 4 25 4C20.5817 4 17 7.58172 17 12C17 16.4183 20.5817 20 25 20Z" fill="#FFAB00"/>
<path fill-rule="evenodd" clip-rule="evenodd" d="M15 20C19.4183 20 23 16.4183 23 12C23 7.58172 19.4183 4 15 4C10.5817 4 7 7.58172 7 12C7 16.4183 10.5817 20 15 20Z" fill="#FF3B30"/>
<path fill-rule="evenodd" clip-rule="evenodd" d="M20 5.75463C18.1711 7.22075 17 9.47362 17 12C17 14.5264 18.1711 16.7793 20 18.2454C21.8289 16.7793 23 14.5264 23 12C23 9.47362 21.8289 7.22075 20 5.75463Z" fill="#FF7200"/>
<path d="M5 0.5H35V-0.5H5V0.5ZM39.5 5V19H40.5V5H39.5ZM35 23.5H5V24.5H35V23.5ZM0.5 19V5H-0.5V19H0.5ZM5 23.5C2.51472 23.5 0.5 21.4853 0.5 19H-0.5C-0.5 22.0376 1.96243 24.5 5 24.5V23.5ZM39.5 19C39.5 21.4853 37.4853 23.5 35 23.5V24.5C38.0376 24.5 40.5 22.0376 40.5 19H39.5ZM35 0.5C37.4853 0.5 39.5 2.51472 39.5 5H40.5C40.5 1.96243 38.0376 -0.5 35 -0.5V0.5ZM5 -0.5C1.96243 -0.5 -0.5 1.96243 -0.5 5H0.5C0.5 2.51472 2.51472 0.5 5 0.5V-0.5Z" fill="black" fill-opacity="0.1"/>
</svg>
