<svg width="40" height="25" viewBox="0 0 40 25" fill="none" xmlns="http://www.w3.org/2000/svg">
<path fill-rule="evenodd" clip-rule="evenodd" d="M24.9386 7C25.9414 7 26.7524 7.22544 27.2637 7.42961L26.9111 9.60863L26.6767 9.50147C26.2076 9.29744 25.5884 9.09355 24.7457 9.1151C23.7223 9.1151 23.2633 9.55498 23.2526 9.98445C23.2526 10.4569 23.8079 10.7682 24.7145 11.2299C26.208 11.9492 26.9008 12.8294 26.8904 13.9781C26.8695 16.0715 25.0987 17.4242 22.3787 17.4242C21.2158 17.4134 20.0957 17.166 19.4877 16.8872L19.8505 14.622L20.1918 14.7832C21.0345 15.1593 21.589 15.32 22.624 15.32C23.3703 15.32 24.1705 15.0084 24.1807 14.3324C24.1807 13.8922 23.8398 13.5699 22.8369 13.0761C21.8557 12.5928 20.5438 11.7878 20.565 10.3384C20.5761 8.37401 22.3787 7 24.9386 7ZM15.2744 17.2738H17.8666L19.4878 7.1829H16.8957L15.2744 17.2738ZM30.7089 13.699C30.9224 13.1193 31.7438 10.8756 31.7438 10.8756C31.7395 10.8843 31.7733 10.7898 31.8237 10.6494L31.8238 10.6489C31.8983 10.4413 32.0086 10.1334 32.0849 9.90953L32.266 10.779C32.266 10.779 32.7569 13.1945 32.8635 13.699H30.7089ZM33.9087 7.1829H31.9036C31.2853 7.1829 30.8155 7.36525 30.5487 8.02015L26.6983 17.2737H29.4182C29.4182 17.2737 29.866 16.0282 29.9623 15.76H33.2905C33.3649 16.1143 33.5998 17.2737 33.5998 17.2737H35.9999L33.9087 7.1829ZM13.1093 7.1829L10.5707 14.064L10.2932 12.6684L10.2925 12.6659L9.38658 8.03183C9.23732 7.38734 8.77861 7.20486 8.2133 7.1836H4.04267L4 7.38749C5.0173 7.64933 5.92718 8.02667 6.7244 8.49584L9.03463 17.2631H11.7758L15.8504 7.1829H13.1093Z" fill="#00579F"/>
<path d="M5 0.5H35V-0.5H5V0.5ZM39.5 5V19.4242H40.5V5H39.5ZM35 23.9242H5V24.9242H35V23.9242ZM0.5 19.4242V5H-0.5V19.4242H0.5ZM5 23.9242C2.51472 23.9242 0.5 21.9095 0.5 19.4242H-0.5C-0.5 22.4618 1.96243 24.9242 5 24.9242V23.9242ZM39.5 19.4242C39.5 21.9095 37.4853 23.9242 35 23.9242V24.9242C38.0376 24.9242 40.5 22.4618 40.5 19.4242H39.5ZM35 0.5C37.4853 0.5 39.5 2.51472 39.5 5H40.5C40.5 1.96243 38.0376 -0.5 35 -0.5V0.5ZM5 -0.5C1.96243 -0.5 -0.5 1.96243 -0.5 5H0.5C0.5 2.51472 2.51472 0.5 5 0.5V-0.5Z" fill="black" fill-opacity="0.1"/>
</svg>
