<svg width="0" height="0" class="hidden">
  <symbol  xmlns="http://www.w3.org/2000/svg" viewBox="0 0 24 24" id="Apple">
    <path fill-rule="evenodd" clip-rule="evenodd" d="M16.096 1.5c.13 1.183-.339 2.349-1.024 3.206-.714.843-1.857 1.488-2.97 1.405-.145-1.138.419-2.348 1.05-3.087.714-.838 1.953-1.48 2.944-1.524zm3.643 6.824c-.124.075-2.183 1.304-2.16 3.812.026 3.028 2.647 4.03 2.679 4.04-.016.071-.41 1.445-1.394 2.84-.82 1.23-1.68 2.43-3.047 2.452-.649.015-1.088-.172-1.544-.366-.477-.204-.974-.415-1.75-.415-.825 0-1.343.218-1.844.429-.432.182-.85.358-1.441.383-1.301.048-2.295-1.312-3.146-2.53-1.7-2.485-3.024-7.005-1.25-10.08.86-1.508 2.43-2.48 4.105-2.506.738-.015 1.446.27 2.067.52.475.19.898.36 1.245.36.305 0 .716-.163 1.196-.353.756-.3 1.681-.668 2.624-.569.645.019 2.48.255 3.663 1.982l-.003.001z" ></path>
  </symbol>
  <symbol  xmlns="http://www.w3.org/2000/svg" viewBox="0 0 24 24" id="Facebook">
    <path d="M17 9.124h-3.406V6.84c0-.857.556-1.057.948-1.057h2.403v-3.77L13.635 2c-3.674 0-4.51 2.812-4.51 4.61v2.514H7v3.884h2.125V24h4.47V13.008h3.015L17 9.124z" ></path>
  </symbol>
  <symbol  xmlns="http://www.w3.org/2000/svg" viewBox="0 0 24 24" id="Google">
    <path d="M12 21c5.194 0 8.644-3.646 8.644-8.791a7.69 7.69 0 00-.147-1.498h-8.496v3.094h5.109c-.21 1.314-1.547 3.88-5.109 3.88-3.068 0-5.574-2.542-5.574-5.685s2.505-5.686 5.574-5.686c1.756 0 2.922.75 3.586 1.388l2.443-2.345C16.457 3.884 14.431 3 12 3c-4.973 0-9 4.027-9 9s4.027 9 9 9z" ></path>
  </symbol>
  <symbol  xmlns="http://www.w3.org/2000/svg" viewBox="0 0 24 24" id="Instagram">
    <path fill-rule="evenodd" clip-rule="evenodd" d="M13.288 2c1.583.004 1.97.02 2.843.061 1.063.047 1.79.219 2.426.465.665.25 1.27.645 1.77 1.153.513.5.903 1.102 1.158 1.774.246.633.418 1.363.465 2.426.04.914.048 1.295.05 3.095v1.574c-.002 2.221-.015 2.585-.058 3.575-.047 1.063-.22 1.79-.465 2.427a5.117 5.117 0 01-2.927 2.926c-.634.246-1.364.418-2.427.465-1.067.047-1.407.059-4.123.059h-.282c-2.46-.001-2.812-.014-3.841-.059-1.063-.047-1.79-.219-2.427-.465a4.924 4.924 0 01-1.77-1.152 4.932 4.932 0 01-1.157-1.774c-.246-.633-.418-1.364-.465-2.427-.039-.876-.053-1.262-.058-2.877v-2.529c.005-1.582.02-1.97.062-2.842.047-1.063.219-1.79.465-2.426.25-.664.645-1.27 1.153-1.77a4.881 4.881 0 011.774-1.157c.633-.246 1.364-.418 2.427-.465.876-.038 1.262-.053 2.877-.057h2.53zm-.234 1.816H10.97c-1.738.004-2.1.018-3 .058-.972.043-1.504.207-1.856.344-.433.16-.824.414-1.149.746a3.04 3.04 0 00-.75 1.15c-.137.35-.3.878-.344 1.855-.043.973-.056 1.32-.058 3.484v1.112c.002 2.164.015 2.507.058 3.484.043.973.207 1.504.344 1.856a3.1 3.1 0 00.747 1.149c.32.332.715.586 1.148.746.352.137.88.3 1.857.344.895.04 1.26.054 2.999.058h2.083c1.738-.004 2.1-.018 3-.058.973-.043 1.504-.207 1.856-.344a3.318 3.318 0 001.9-1.899c.136-.352.3-.879.343-1.856.042-.938.056-1.289.058-3.23v-1.613c-.002-1.941-.016-2.295-.058-3.233-.043-.973-.207-1.504-.344-1.856a3.109 3.109 0 00-.746-1.149 3.076 3.076 0 00-1.15-.746c-.351-.137-.879-.3-1.856-.344-.895-.04-1.258-.054-2.998-.058zm-1.05 3.047a5.14 5.14 0 015.139 5.138 5.14 5.14 0 01-10.278 0 5.14 5.14 0 015.139-5.138zm0 1.805a3.334 3.334 0 100 6.668 3.334 3.334 0 000-6.668zm5.342-3.207a1.2 1.2 0 110 2.399 1.2 1.2 0 010-2.4z" ></path>
  </symbol>
  <symbol  xmlns="http://www.w3.org/2000/svg" viewBox="0 0 24 24" id="Twitter">
    <path fill-rule="evenodd" clip-rule="evenodd" d="M22 5.894a8.652 8.652 0 01-2.363.638A4.026 4.026 0 0021.441 4.3a8.27 8.27 0 01-2.6.978A4.139 4.139 0 0015.846 4c-2.27 0-4.097 1.814-4.097 4.038 0 .32.027.628.095.92a11.666 11.666 0 01-8.451-4.222 4.017 4.017 0 00-.562 2.04 4.03 4.03 0 001.821 3.356A4.098 4.098 0 012.8 9.634v.045c0 1.962 1.421 3.591 3.285 3.966a4.15 4.15 0 01-1.075.133c-.263 0-.527-.014-.776-.069a4.131 4.131 0 003.831 2.813 8.32 8.32 0 01-5.084 1.722A7.72 7.72 0 012 18.188 11.675 11.675 0 008.29 20c7.545 0 11.67-6.154 11.67-11.488 0-.178-.006-.35-.015-.522A8.112 8.112 0 0022 5.894z" ></path>
  </symbol>
</svg>
